<svg width="113" height="15" viewBox="0 0 113 15" fill="none" xmlns="http://www.w3.org/2000/svg">
<path d="M1 6.36395C0.447715 6.36395 0 6.81167 0 7.36395C0 7.91624 0.447715 8.36395 1 8.36395V7.36395V6.36395ZM112.111 8.07106C112.501 7.68054 112.501 7.04737 112.111 6.65685L105.747 0.292885C105.356 -0.0976396 104.723 -0.0976396 104.332 0.292885C103.942 0.683409 103.942 1.31657 104.332 1.7071L109.989 7.36395L104.332 13.0208C103.942 13.4113 103.942 14.0445 104.332 14.435C104.723 14.8255 105.356 14.8255 105.747 14.435L112.111 8.07106ZM1 7.36395V8.36395H2.97149V7.36395V6.36395H1V7.36395ZM6.91448 7.36395V8.36395H10.8575V7.36395V6.36395H6.91448V7.36395ZM14.8004 7.36395V8.36395H18.7434V7.36395V6.36395H14.8004V7.36395ZM22.6864 7.36395V8.36395H26.6294V7.36395V6.36395H22.6864V7.36395ZM30.5724 7.36395V8.36395H34.5154V7.36395V6.36395H30.5724V7.36395ZM38.4584 7.36395V8.36395H42.4013V7.36395V6.36395H38.4584V7.36395ZM46.3443 7.36395V8.36395H50.2873V7.36395V6.36395H46.3443V7.36395ZM54.2303 7.36395V8.36395H58.1733V7.36395V6.36395H54.2303V7.36395ZM62.1163 7.36395V8.36395H66.0592V7.36395V6.36395H62.1163V7.36395ZM70.0022 7.36395V8.36395H73.9452V7.36395V6.36395H70.0022V7.36395ZM77.8882 7.36395V8.36395H81.8312V7.36395V6.36395H77.8882V7.36395ZM85.7742 7.36395V8.36395H89.7172V7.36395V6.36395H85.7742V7.36395ZM93.6601 7.36395V8.36395H97.6031V7.36395V6.36395H93.6601V7.36395ZM101.546 7.36395V8.36395H105.489V7.36395V6.36395H101.546V7.36395ZM109.432 7.36395V8.36395H111.404V7.36395V6.36395H109.432V7.36395Z" fill="#D80032"/>
</svg>
